<svg width="50" height="50" viewBox="0 0 45 45" fill="none" xmlns="http://www.w3.org/2000/svg">
<circle cx="22.5" cy="22.5" r="22.5" fill="#5F357C"/>
<g clip-path="url(#clip0_0_1)">
<path fill-rule="evenodd" clip-rule="evenodd" d="M11.8214 11.2058C11.3678 11.2058 11 11.5736 11 12.0272V28.4557C11 28.9095 11.3678 29.2772 11.8214 29.2772H19.635C19.3625 28.5065 19.2143 27.677 19.2143 26.8129C19.2143 24.7243 20.0805 22.8379 21.4732 21.4934V13.3456C21.0082 12.096 19.8045 11.2058 18.3929 11.2058H11.8214ZM23.5268 13.3456V20.0904C24.4645 19.66 25.5078 19.4201 26.6071 19.4201C30.4081 19.4201 33.539 22.2885 33.9535 25.9787H34V12.0272C34 11.5736 33.6322 11.2058 33.1786 11.2058H26.6071C25.1956 11.2058 23.9918 12.096 23.5268 13.3456ZM26.6071 23.9379C25.0193 23.9379 23.7321 25.2251 23.7321 26.8129C23.7321 28.4007 25.0193 29.6879 26.6071 29.6879C28.195 29.6879 29.4821 28.4007 29.4821 26.8129C29.4821 25.2251 28.195 23.9379 26.6071 23.9379ZM21.2679 26.8129C21.2679 23.8642 23.6583 21.4737 26.6071 21.4737C29.5559 21.4737 31.9464 23.8642 31.9464 26.8129C31.9464 27.841 31.656 28.8011 31.1524 29.6158L33.2277 31.6909C33.7089 32.172 33.7089 32.9522 33.2277 33.4334C32.7465 33.9146 31.9663 33.9146 31.4851 33.4334L29.41 31.3583C28.5953 31.8617 27.6351 32.1522 26.6071 32.1522C23.6583 32.1522 21.2679 29.7618 21.2679 26.8129Z" fill="white"/>
</g>
<defs>
<clipPath id="clip0_0_1">
<rect width="23" height="23" fill="white" transform="translate(11 11)"/>
</clipPath>
</defs>
</svg>
