<svg width="318" height="326" viewBox="0 0 318 326" fill="none" xmlns="http://www.w3.org/2000/svg">
<path d="M12.0162 289V267.182H25.9935V270.495H15.9687V276.418H25.0347V279.732H15.9687V289H12.0162ZM33.9862 289.33C32.9493 289.33 32.0154 289.146 31.1844 288.776C30.3605 288.4 29.7071 287.846 29.2242 287.114C28.7483 286.383 28.5104 285.481 28.5104 284.408C28.5104 283.485 28.6808 282.722 29.0218 282.118C29.3627 281.514 29.8279 281.031 30.4173 280.669C31.0068 280.307 31.6709 280.033 32.4095 279.849C33.1553 279.657 33.9259 279.518 34.7213 279.433C35.6801 279.334 36.4578 279.245 37.0544 279.167C37.651 279.082 38.0843 278.954 38.3541 278.783C38.6311 278.606 38.7696 278.332 38.7696 277.963V277.899C38.7696 277.097 38.5317 276.475 38.0558 276.035C37.58 275.594 36.8946 275.374 35.9997 275.374C35.0551 275.374 34.3058 275.58 33.7519 275.992C33.205 276.404 32.8357 276.891 32.6439 277.452L29.0431 276.94C29.3271 275.946 29.7959 275.115 30.4493 274.447C31.1027 273.773 31.9017 273.268 32.8463 272.935C33.7909 272.594 34.835 272.423 35.9784 272.423C36.7668 272.423 37.5516 272.516 38.3328 272.7C39.1141 272.885 39.8279 273.19 40.4742 273.616C41.1205 274.036 41.6389 274.607 42.0296 275.332C42.4273 276.056 42.6262 276.962 42.6262 278.048V289H38.9188V286.752H38.7909C38.5566 287.207 38.2263 287.633 37.8002 288.031C37.3811 288.421 36.852 288.737 36.2128 288.979C35.5807 289.213 34.8385 289.33 33.9862 289.33ZM34.9877 286.496C35.7618 286.496 36.433 286.344 37.0012 286.038C37.5693 285.726 38.0061 285.314 38.3115 284.803C38.624 284.291 38.7803 283.734 38.7803 283.13V281.202C38.6595 281.301 38.4536 281.393 38.1624 281.479C37.8783 281.564 37.5587 281.638 37.2036 281.702C36.8485 281.766 36.4969 281.823 36.1489 281.873C35.8009 281.923 35.499 281.965 35.2433 282.001C34.6681 282.079 34.1531 282.207 33.6986 282.384C33.2441 282.562 32.8854 282.81 32.6226 283.13C32.3598 283.442 32.2284 283.847 32.2284 284.344C32.2284 285.055 32.4877 285.591 33.0061 285.953C33.5246 286.315 34.1851 286.496 34.9877 286.496ZM53.6418 289.32C52.0083 289.32 50.6056 288.961 49.4337 288.244C48.2689 287.526 47.3705 286.536 46.7384 285.271C46.1134 284 45.8009 282.537 45.8009 280.882C45.8009 279.22 46.1205 277.754 46.7597 276.482C47.3989 275.204 48.3009 274.21 49.4656 273.499C50.6375 272.782 52.0225 272.423 53.6205 272.423C54.9486 272.423 56.124 272.668 57.1468 273.158C58.1766 273.641 58.9969 274.327 59.6077 275.214C60.2185 276.095 60.5665 277.125 60.6517 278.304H56.9656C56.8165 277.516 56.4614 276.859 55.9003 276.333C55.3463 275.8 54.6041 275.534 53.6737 275.534C52.8854 275.534 52.1929 275.747 51.5963 276.173C50.9997 276.592 50.5345 277.196 50.2007 277.984C49.874 278.773 49.7107 279.717 49.7107 280.818C49.7107 281.933 49.874 282.892 50.2007 283.695C50.5274 284.49 50.9855 285.104 51.575 285.538C52.1716 285.964 52.8712 286.177 53.6737 286.177C54.2419 286.177 54.7497 286.07 55.1972 285.857C55.6517 285.637 56.0317 285.321 56.3371 284.909C56.6425 284.497 56.852 283.996 56.9656 283.407H60.6517C60.5594 284.565 60.2185 285.591 59.629 286.486C59.0395 287.374 58.2369 288.07 57.2213 288.574C56.2057 289.071 55.0125 289.32 53.6418 289.32ZM52.5338 288.915H54.6219L54.4514 289.82C55.1191 289.92 55.6837 290.175 56.1453 290.587C56.6141 291.006 56.8485 291.607 56.8485 292.388C56.8556 293.396 56.4046 294.206 55.4955 294.817C54.5864 295.428 53.2902 295.733 51.607 295.733L51.5644 293.837C52.3811 293.837 53.031 293.727 53.5139 293.506C53.9969 293.293 54.2419 292.952 54.249 292.484C54.2632 292.029 54.0928 291.695 53.7377 291.482C53.3896 291.276 52.8357 291.134 52.0757 291.056L52.5338 288.915ZM68.5273 289.33C67.4903 289.33 66.5564 289.146 65.7254 288.776C64.9015 288.4 64.2481 287.846 63.7652 287.114C63.2893 286.383 63.0514 285.481 63.0514 284.408C63.0514 283.485 63.2219 282.722 63.5628 282.118C63.9037 281.514 64.3689 281.031 64.9584 280.669C65.5479 280.307 66.2119 280.033 66.9506 279.849C67.6963 279.657 68.4669 279.518 69.2623 279.433C70.2211 279.334 70.9988 279.245 71.5954 279.167C72.192 279.082 72.6253 278.954 72.8952 278.783C73.1721 278.606 73.3106 278.332 73.3106 277.963V277.899C73.3106 277.097 73.0727 276.475 72.5969 276.035C72.121 275.594 71.4356 275.374 70.5407 275.374C69.5961 275.374 68.8469 275.58 68.2929 275.992C67.746 276.404 67.3767 276.891 67.1849 277.452L63.5841 276.94C63.8682 275.946 64.3369 275.115 64.9903 274.447C65.6437 273.773 66.4427 273.268 67.3873 272.935C68.3319 272.594 69.376 272.423 70.5194 272.423C71.3078 272.423 72.0926 272.516 72.8738 272.7C73.6551 272.885 74.3689 273.19 75.0152 273.616C75.6615 274.036 76.18 274.607 76.5706 275.332C76.9683 276.056 77.1672 276.962 77.1672 278.048V289H73.4598V286.752H73.3319C73.0976 287.207 72.7673 287.633 72.3412 288.031C71.9221 288.421 71.393 288.737 70.7538 288.979C70.1217 289.213 69.3795 289.33 68.5273 289.33ZM69.5287 286.496C70.3028 286.496 70.974 286.344 71.5422 286.038C72.1104 285.726 72.5471 285.314 72.8525 284.803C73.165 284.291 73.3213 283.734 73.3213 283.13V281.202C73.2006 281.301 72.9946 281.393 72.7034 281.479C72.4193 281.564 72.0997 281.638 71.7446 281.702C71.3895 281.766 71.0379 281.823 70.6899 281.873C70.3419 281.923 70.04 281.965 69.7844 282.001C69.2091 282.079 68.6942 282.207 68.2396 282.384C67.7851 282.562 67.4264 282.81 67.1636 283.13C66.9008 283.442 66.7694 283.847 66.7694 284.344C66.7694 285.055 67.0287 285.591 67.5471 285.953C68.0656 286.315 68.7261 286.496 69.5287 286.496ZM95.6242 289.32C94.0262 289.32 92.6412 288.968 91.4694 288.265C90.2975 287.562 89.3884 286.578 88.7421 285.314C88.1029 284.05 87.7833 282.572 87.7833 280.882C87.7833 279.192 88.1029 277.711 88.7421 276.44C89.3884 275.168 90.2975 274.181 91.4694 273.478C92.6412 272.775 94.0262 272.423 95.6242 272.423C97.2222 272.423 98.6072 272.775 99.779 273.478C100.951 274.181 101.856 275.168 102.496 276.44C103.142 277.711 103.465 279.192 103.465 280.882C103.465 282.572 103.142 284.05 102.496 285.314C101.856 286.578 100.951 287.562 99.779 288.265C98.6072 288.968 97.2222 289.32 95.6242 289.32ZM95.6455 286.23C96.512 286.23 97.2364 285.992 97.8188 285.516C98.4012 285.033 98.8344 284.387 99.1185 283.577C99.4097 282.768 99.5553 281.866 99.5553 280.871C99.5553 279.87 99.4097 278.964 99.1185 278.155C98.8344 277.338 98.4012 276.688 97.8188 276.205C97.2364 275.722 96.512 275.481 95.6455 275.481C94.7577 275.481 94.0191 275.722 93.4296 276.205C92.8472 276.688 92.4104 277.338 92.1192 278.155C91.8351 278.964 91.6931 279.87 91.6931 280.871C91.6931 281.866 91.8351 282.768 92.1192 283.577C92.4104 284.387 92.8472 285.033 93.4296 285.516C94.0191 285.992 94.7577 286.23 95.6455 286.23ZM124.609 282.118V272.636H128.466V289H124.727V286.092H124.556C124.187 287.008 123.58 287.757 122.734 288.339C121.896 288.922 120.863 289.213 119.634 289.213C118.562 289.213 117.614 288.975 116.79 288.499C115.973 288.016 115.334 287.317 114.872 286.401C114.411 285.477 114.18 284.362 114.18 283.055V272.636H118.036V282.459C118.036 283.496 118.32 284.32 118.889 284.93C119.457 285.541 120.203 285.847 121.126 285.847C121.694 285.847 122.244 285.708 122.777 285.431C123.31 285.154 123.747 284.742 124.087 284.195C124.435 283.641 124.609 282.949 124.609 282.118ZM132.432 295.136V272.636H136.224V275.342H136.448C136.647 274.945 136.927 274.522 137.29 274.075C137.652 273.62 138.142 273.233 138.76 272.913C139.378 272.587 140.166 272.423 141.125 272.423C142.389 272.423 143.529 272.746 144.545 273.393C145.567 274.032 146.377 274.98 146.974 276.237C147.577 277.487 147.879 279.021 147.879 280.839C147.879 282.636 147.584 284.163 146.995 285.42C146.405 286.678 145.603 287.636 144.587 288.297C143.572 288.957 142.421 289.288 141.136 289.288C140.198 289.288 139.42 289.131 138.802 288.819C138.185 288.506 137.687 288.13 137.311 287.69C136.942 287.242 136.654 286.82 136.448 286.422H136.288V295.136H132.432ZM136.214 280.818C136.214 281.876 136.363 282.803 136.661 283.599C136.967 284.394 137.403 285.016 137.972 285.463C138.547 285.903 139.243 286.124 140.06 286.124C140.912 286.124 141.626 285.896 142.201 285.442C142.776 284.98 143.209 284.352 143.501 283.556C143.799 282.754 143.948 281.841 143.948 280.818C143.948 279.803 143.802 278.901 143.511 278.112C143.22 277.324 142.787 276.706 142.212 276.259C141.636 275.811 140.919 275.587 140.06 275.587C139.236 275.587 138.536 275.804 137.961 276.237C137.386 276.67 136.949 277.278 136.65 278.059C136.359 278.84 136.214 279.76 136.214 280.818ZM155.038 267.182V289H151.182V267.182H155.038ZM166.142 289.32C164.544 289.32 163.159 288.968 161.987 288.265C160.815 287.562 159.906 286.578 159.26 285.314C158.62 284.05 158.301 282.572 158.301 280.882C158.301 279.192 158.62 277.711 159.26 276.44C159.906 275.168 160.815 274.181 161.987 273.478C163.159 272.775 164.544 272.423 166.142 272.423C167.74 272.423 169.125 272.775 170.297 273.478C171.468 274.181 172.374 275.168 173.013 276.44C173.66 277.711 173.983 279.192 173.983 280.882C173.983 282.572 173.66 284.05 173.013 285.314C172.374 286.578 171.468 287.562 170.297 288.265C169.125 288.968 167.74 289.32 166.142 289.32ZM166.163 286.23C167.03 286.23 167.754 285.992 168.336 285.516C168.919 285.033 169.352 284.387 169.636 283.577C169.927 282.768 170.073 281.866 170.073 280.871C170.073 279.87 169.927 278.964 169.636 278.155C169.352 277.338 168.919 276.688 168.336 276.205C167.754 275.722 167.03 275.481 166.163 275.481C165.275 275.481 164.537 275.722 163.947 276.205C163.365 276.688 162.928 277.338 162.637 278.155C162.353 278.964 162.211 279.87 162.211 280.871C162.211 281.866 162.353 282.768 162.637 283.577C162.928 284.387 163.365 285.033 163.947 285.516C164.537 285.992 165.275 286.23 166.163 286.23ZM181.965 289.33C180.928 289.33 179.994 289.146 179.163 288.776C178.339 288.4 177.686 287.846 177.203 287.114C176.727 286.383 176.489 285.481 176.489 284.408C176.489 283.485 176.659 282.722 177 282.118C177.341 281.514 177.806 281.031 178.396 280.669C178.985 280.307 179.649 280.033 180.388 279.849C181.134 279.657 181.904 279.518 182.7 279.433C183.659 279.334 184.436 279.245 185.033 279.167C185.63 279.082 186.063 278.954 186.333 278.783C186.61 278.606 186.748 278.332 186.748 277.963V277.899C186.748 277.097 186.51 276.475 186.034 276.035C185.559 275.594 184.873 275.374 183.978 275.374C183.034 275.374 182.284 275.58 181.73 275.992C181.184 276.404 180.814 276.891 180.622 277.452L177.022 276.94C177.306 275.946 177.774 275.115 178.428 274.447C179.081 273.773 179.88 273.268 180.825 272.935C181.769 272.594 182.813 272.423 183.957 272.423C184.745 272.423 185.53 272.516 186.311 272.7C187.093 272.885 187.806 273.19 188.453 273.616C189.099 274.036 189.617 274.607 190.008 275.332C190.406 276.056 190.605 276.962 190.605 278.048V289H186.897V286.752H186.769C186.535 287.207 186.205 287.633 185.779 288.031C185.36 288.421 184.831 288.737 184.191 288.979C183.559 289.213 182.817 289.33 181.965 289.33ZM182.966 286.496C183.74 286.496 184.411 286.344 184.98 286.038C185.548 285.726 185.985 285.314 186.29 284.803C186.603 284.291 186.759 283.734 186.759 283.13V281.202C186.638 281.301 186.432 281.393 186.141 281.479C185.857 281.564 185.537 281.638 185.182 281.702C184.827 281.766 184.475 281.823 184.127 281.873C183.779 281.923 183.478 281.965 183.222 282.001C182.647 282.079 182.132 282.207 181.677 282.384C181.223 282.562 180.864 282.81 180.601 283.13C180.338 283.442 180.207 283.847 180.207 284.344C180.207 285.055 180.466 285.591 180.985 285.953C181.503 286.315 182.164 286.496 182.966 286.496ZM200.555 289.288C199.269 289.288 198.119 288.957 197.103 288.297C196.088 287.636 195.285 286.678 194.696 285.42C194.106 284.163 193.811 282.636 193.811 280.839C193.811 279.021 194.11 277.487 194.706 276.237C195.31 274.98 196.123 274.032 197.146 273.393C198.169 272.746 199.309 272.423 200.566 272.423C201.524 272.423 202.313 272.587 202.931 272.913C203.549 273.233 204.039 273.62 204.401 274.075C204.763 274.522 205.044 274.945 205.242 275.342H205.402V267.182H209.269V289H205.477V286.422H205.242C205.044 286.82 204.756 287.242 204.38 287.69C204.003 288.13 203.506 288.506 202.888 288.819C202.27 289.131 201.492 289.288 200.555 289.288ZM201.631 286.124C202.448 286.124 203.144 285.903 203.719 285.463C204.294 285.016 204.731 284.394 205.029 283.599C205.328 282.803 205.477 281.876 205.477 280.818C205.477 279.76 205.328 278.84 205.029 278.059C204.738 277.278 204.305 276.67 203.73 276.237C203.161 275.804 202.462 275.587 201.631 275.587C200.772 275.587 200.054 275.811 199.479 276.259C198.904 276.706 198.47 277.324 198.179 278.112C197.888 278.901 197.742 279.803 197.742 280.818C197.742 281.841 197.888 282.754 198.179 283.556C198.478 284.352 198.914 284.98 199.49 285.442C200.072 285.896 200.786 286.124 201.631 286.124ZM226.893 289.288C225.607 289.288 224.457 288.957 223.441 288.297C222.426 287.636 221.623 286.678 221.033 285.42C220.444 284.163 220.149 282.636 220.149 280.839C220.149 279.021 220.448 277.487 221.044 276.237C221.648 274.98 222.461 274.032 223.484 273.393C224.506 272.746 225.646 272.423 226.903 272.423C227.862 272.423 228.651 272.587 229.269 272.913C229.886 273.233 230.377 273.62 230.739 274.075C231.101 274.522 231.381 274.945 231.58 275.342H231.74V267.182H235.607V289H231.815V286.422H231.58C231.381 286.82 231.094 287.242 230.717 287.69C230.341 288.13 229.844 288.506 229.226 288.819C228.608 289.131 227.83 289.288 226.893 289.288ZM227.969 286.124C228.786 286.124 229.482 285.903 230.057 285.463C230.632 285.016 231.069 284.394 231.367 283.599C231.666 282.803 231.815 281.876 231.815 280.818C231.815 279.76 231.666 278.84 231.367 278.059C231.076 277.278 230.643 276.67 230.068 276.237C229.499 275.804 228.8 275.587 227.969 275.587C227.109 275.587 226.392 275.811 225.817 276.259C225.242 276.706 224.808 277.324 224.517 278.112C224.226 278.901 224.08 279.803 224.08 280.818C224.08 281.841 224.226 282.754 224.517 283.556C224.815 284.352 225.252 284.98 225.828 285.442C226.41 285.896 227.124 286.124 227.969 286.124ZM246.961 289.32C245.321 289.32 243.904 288.979 242.71 288.297C241.524 287.608 240.612 286.635 239.973 285.378C239.333 284.114 239.014 282.626 239.014 280.914C239.014 279.231 239.333 277.754 239.973 276.482C240.619 275.204 241.521 274.21 242.679 273.499C243.836 272.782 245.196 272.423 246.759 272.423C247.767 272.423 248.719 272.587 249.614 272.913C250.516 273.233 251.311 273.73 252 274.405C252.696 275.08 253.243 275.939 253.641 276.983C254.039 278.02 254.237 279.256 254.237 280.69V281.873H240.825V279.273H250.541C250.534 278.535 250.374 277.878 250.061 277.303C249.749 276.72 249.312 276.262 248.751 275.928C248.197 275.594 247.551 275.428 246.812 275.428C246.024 275.428 245.331 275.619 244.735 276.003C244.138 276.379 243.673 276.876 243.339 277.494C243.012 278.105 242.845 278.776 242.838 279.508V281.777C242.838 282.729 243.012 283.545 243.36 284.227C243.708 284.902 244.195 285.42 244.82 285.783C245.445 286.138 246.176 286.315 247.014 286.315C247.576 286.315 248.083 286.237 248.538 286.081C248.992 285.918 249.387 285.68 249.72 285.367C250.054 285.055 250.306 284.668 250.477 284.206L254.078 284.611C253.85 285.562 253.417 286.393 252.778 287.104C252.146 287.807 251.336 288.354 250.349 288.744C249.362 289.128 248.233 289.32 246.961 289.32ZM275.371 282.118V272.636H279.228V289H275.488V286.092H275.318C274.949 287.008 274.341 287.757 273.496 288.339C272.658 288.922 271.625 289.213 270.396 289.213C269.324 289.213 268.375 288.975 267.552 288.499C266.735 288.016 266.096 287.317 265.634 286.401C265.172 285.477 264.941 284.362 264.941 283.055V272.636H268.798V282.459C268.798 283.496 269.082 284.32 269.65 284.93C270.218 285.541 270.964 285.847 271.888 285.847C272.456 285.847 273.006 285.708 273.539 285.431C274.071 285.154 274.508 284.742 274.849 284.195C275.197 283.641 275.371 282.949 275.371 282.118ZM283.193 289V272.636H286.88V275.417H287.071C287.412 274.479 287.977 273.748 288.765 273.222C289.554 272.69 290.495 272.423 291.588 272.423C292.696 272.423 293.63 272.693 294.39 273.233C295.157 273.766 295.697 274.494 296.009 275.417H296.18C296.542 274.508 297.153 273.783 298.012 273.244C298.879 272.697 299.905 272.423 301.091 272.423C302.597 272.423 303.826 272.899 304.777 273.851C305.729 274.803 306.205 276.191 306.205 278.016V289H302.338V278.613C302.338 277.597 302.068 276.855 301.528 276.386C300.988 275.911 300.328 275.673 299.546 275.673C298.616 275.673 297.888 275.964 297.362 276.546C296.844 277.121 296.585 277.871 296.585 278.794V289H292.803V278.453C292.803 277.608 292.547 276.933 292.036 276.429C291.532 275.925 290.871 275.673 290.054 275.673C289.5 275.673 288.996 275.815 288.541 276.099C288.087 276.376 287.725 276.77 287.455 277.281C287.185 277.786 287.05 278.375 287.05 279.05V289H283.193ZM121.255 325V308.636H125.112V325H121.255ZM121.713 306.484L124.099 301.616H127.871L124.6 306.484H121.713ZM136.215 325.32C134.581 325.32 133.179 324.961 132.007 324.244C130.842 323.526 129.944 322.536 129.312 321.271C128.687 320 128.374 318.537 128.374 316.882C128.374 315.22 128.694 313.754 129.333 312.482C129.972 311.204 130.874 310.21 132.039 309.499C133.211 308.782 134.596 308.423 136.194 308.423C137.522 308.423 138.697 308.668 139.72 309.158C140.75 309.641 141.57 310.327 142.181 311.214C142.792 312.095 143.14 313.125 143.225 314.304H139.539C139.39 313.516 139.035 312.859 138.474 312.333C137.92 311.8 137.177 311.534 136.247 311.534C135.459 311.534 134.766 311.747 134.17 312.173C133.573 312.592 133.108 313.196 132.774 313.984C132.447 314.773 132.284 315.717 132.284 316.818C132.284 317.933 132.447 318.892 132.774 319.695C133.101 320.49 133.559 321.104 134.148 321.538C134.745 321.964 135.444 322.177 136.247 322.177C136.815 322.177 137.323 322.07 137.77 321.857C138.225 321.637 138.605 321.321 138.91 320.909C139.216 320.497 139.425 319.996 139.539 319.407H143.225C143.133 320.565 142.792 321.591 142.202 322.486C141.613 323.374 140.81 324.07 139.795 324.574C138.779 325.071 137.586 325.32 136.215 325.32ZM153.529 325.32C151.931 325.32 150.547 324.968 149.375 324.265C148.203 323.562 147.294 322.578 146.647 321.314C146.008 320.05 145.689 318.572 145.689 316.882C145.689 315.192 146.008 313.711 146.647 312.44C147.294 311.168 148.203 310.181 149.375 309.478C150.547 308.775 151.931 308.423 153.529 308.423C155.127 308.423 156.512 308.775 157.684 309.478C158.856 310.181 159.762 311.168 160.401 312.44C161.047 313.711 161.37 315.192 161.37 316.882C161.37 318.572 161.047 320.05 160.401 321.314C159.762 322.578 158.856 323.562 157.684 324.265C156.512 324.968 155.127 325.32 153.529 325.32ZM153.551 322.23C154.417 322.23 155.142 321.992 155.724 321.516C156.306 321.033 156.74 320.387 157.024 319.577C157.315 318.768 157.461 317.866 157.461 316.871C157.461 315.87 157.315 314.964 157.024 314.155C156.74 313.338 156.306 312.688 155.724 312.205C155.142 311.722 154.417 311.481 153.551 311.481C152.663 311.481 151.924 311.722 151.335 312.205C150.752 312.688 150.316 313.338 150.025 314.155C149.74 314.964 149.598 315.87 149.598 316.871C149.598 317.866 149.74 318.768 150.025 319.577C150.316 320.387 150.752 321.033 151.335 321.516C151.924 321.992 152.663 322.23 153.551 322.23ZM168.5 315.412V325H164.644V308.636H168.33V311.417H168.521C168.898 310.501 169.498 309.773 170.322 309.233C171.153 308.693 172.179 308.423 173.401 308.423C174.53 308.423 175.514 308.665 176.352 309.148C177.197 309.631 177.85 310.33 178.312 311.246C178.781 312.163 179.012 313.274 179.004 314.581V325H175.148V315.178C175.148 314.084 174.864 313.228 174.296 312.61C173.735 311.992 172.957 311.683 171.963 311.683C171.288 311.683 170.688 311.832 170.162 312.131C169.644 312.422 169.235 312.844 168.937 313.398C168.646 313.952 168.5 314.624 168.5 315.412ZM190.169 325.32C188.529 325.32 187.112 324.979 185.919 324.297C184.732 323.608 183.82 322.635 183.181 321.378C182.541 320.114 182.222 318.626 182.222 316.914C182.222 315.231 182.541 313.754 183.181 312.482C183.827 311.204 184.729 310.21 185.887 309.499C187.044 308.782 188.404 308.423 189.967 308.423C190.975 308.423 191.927 308.587 192.822 308.913C193.724 309.233 194.519 309.73 195.208 310.405C195.904 311.08 196.451 311.939 196.849 312.983C197.247 314.02 197.445 315.256 197.445 316.69V317.873H184.033V315.273H193.749C193.742 314.535 193.582 313.878 193.269 313.303C192.957 312.72 192.52 312.262 191.959 311.928C191.405 311.594 190.759 311.428 190.02 311.428C189.232 311.428 188.539 311.619 187.943 312.003C187.346 312.379 186.881 312.876 186.547 313.494C186.22 314.105 186.053 314.776 186.046 315.508V317.777C186.046 318.729 186.22 319.545 186.568 320.227C186.916 320.902 187.403 321.42 188.028 321.783C188.653 322.138 189.384 322.315 190.222 322.315C190.784 322.315 191.291 322.237 191.746 322.081C192.2 321.918 192.595 321.68 192.928 321.367C193.262 321.055 193.514 320.668 193.685 320.206L197.286 320.611C197.058 321.562 196.625 322.393 195.986 323.104C195.354 323.807 194.544 324.354 193.557 324.744C192.57 325.128 191.441 325.32 190.169 325.32Z" fill="#5F357C"/>
<rect x="0.5" y="1.46362" width="317" height="231.376" rx="9.5" fill="#5F357C" stroke="#D3D3D3"/>
<g clip-path="url(#clip0_0_1)">
<path fill-rule="evenodd" clip-rule="evenodd" d="M239 172C239 180.284 231.325 187 221.857 187H96.1429C86.6751 187 79 180.284 79 172V62C79 53.7157 86.6751 47 96.1429 47H221.857C231.325 47 239 53.7157 239 62V172ZM121.857 67C110.811 67 101.857 74.835 101.857 84.5C101.857 94.165 110.811 102 121.857 102C132.903 102 141.857 94.165 141.857 84.5C141.857 74.835 132.903 67 121.857 67ZM175.011 112.99L107.571 172H221.857V132L189.735 111.924C185.189 109.083 178.962 109.533 175.011 112.99Z" fill="white"/>
</g>
<defs>
<clipPath id="clip0_0_1">
<rect width="160" height="140" fill="white" transform="translate(79 47)"/>
</clipPath>
</defs>
</svg>
