<svg width="50" height="50" viewBox="0 0 45 45" fill="none" xmlns="http://www.w3.org/2000/svg">
<circle cx="22.5" cy="22.5" r="22.5" fill="#5F357C"/>
<g clip-path="url(#clip0_0_1)">
<path fill-rule="evenodd" clip-rule="evenodd" d="M11.8214 15.1071C11.8214 12.8388 13.6603 11 15.9286 11C18.1969 11 20.0357 12.8388 20.0357 15.1071C20.0357 17.3755 18.1969 19.2143 15.9286 19.2143C13.6603 19.2143 11.8214 17.3755 11.8214 15.1071ZM29.0714 11C26.8031 11 24.9643 12.8388 24.9643 15.1071C24.9643 17.3755 26.8031 19.2143 29.0714 19.2143C31.3397 19.2143 33.1786 17.3755 33.1786 15.1071C33.1786 12.8388 31.3397 11 29.0714 11ZM25.9729 23.0876C26.603 21.9114 27.5892 20.8571 29.0714 20.8571C30.5536 20.8571 31.5398 21.9114 32.17 23.0876C32.8086 24.2796 33.2119 25.8176 33.4738 27.2842C33.7381 28.7644 33.8691 30.2364 33.9345 31.3328C33.9671 31.8825 33.9836 32.3412 33.9918 32.6635C33.9959 32.8247 33.9979 32.952 33.999 33.0396L33.9998 33.1408L34 33.1679V33.1774C34 33.1778 34 33.1786 33.1786 33.1786L34 33.1774C34 33.631 33.6322 34 33.1786 34H24.9643C24.5106 34 24.1429 33.6322 24.1429 33.1786H24.9643C24.1429 33.1786 24.1429 33.1789 24.1429 33.1786V33.1753L24.1429 33.1679L24.143 33.1408L24.1439 33.0396C24.145 32.952 24.147 32.8247 24.1511 32.6635C24.1594 32.3412 24.1758 31.8825 24.2085 31.3328C24.2738 30.2364 24.4047 28.7644 24.669 27.2842C24.9309 25.8176 25.3343 24.2796 25.9729 23.0876ZM11 21.6786C11 21.2249 11.3678 20.8571 11.8214 20.8571H20.0357C20.4894 20.8571 20.8571 21.2249 20.8571 21.6786H20.0357C20.8571 21.6786 20.8571 21.6783 20.8571 21.6786V21.6818L20.8571 21.6892L20.857 21.7163L20.8561 21.8175C20.855 21.9052 20.853 22.0325 20.8488 22.1937C20.8406 22.5159 20.8242 22.9746 20.7915 23.5243C20.7262 24.6208 20.5953 26.0928 20.331 27.573C20.0691 29.0396 19.6657 30.5776 19.0271 31.7697C18.397 32.9458 17.4108 34 15.9286 34C14.4463 34 13.4601 32.9458 12.8301 31.7697C12.1914 30.5776 11.7881 29.0396 11.5262 27.573C11.2619 26.0928 11.1309 24.6208 11.0656 23.5243C11.0329 22.9746 11.0165 22.5159 11.0083 22.1937C11.0042 22.0325 11.0021 21.9052 11.0011 21.8175L11.0001 21.7163L11 21.6892L11 21.6818V21.6786C11 21.6783 11 21.6786 11.8214 21.6786H11Z" fill="white"/>
</g>
<defs>
<clipPath id="clip0_0_1">
<rect width="23" height="23" fill="white" transform="translate(11 11)"/>
</clipPath>
</defs>
</svg>
