<svg width="45" height="45" viewBox="0 0 45 45" fill="none" xmlns="http://www.w3.org/2000/svg">
<circle cx="22.5" cy="22.5" r="22.5" fill="#5F357C"/>
<g clip-path="url(#clip0_0_1)">
<path fill-rule="evenodd" clip-rule="evenodd" d="M31.3739 25.7468H22.9253C24.8434 25.5859 26.3499 23.9781 26.3499 22.0185C26.3499 19.9521 24.6747 18.2769 22.6083 18.2769H19.8478C20.4776 17.4299 20.8502 16.3804 20.8502 15.2438C20.8502 13.4717 19.9444 11.9112 18.5706 11H31.3739C32.5979 11 33.5898 11.9921 33.5898 13.2159V23.5309C33.5898 24.7547 32.5979 25.7468 31.3739 25.7468ZM15.7614 18.2791C17.4377 18.2791 18.7966 16.9201 18.7966 15.2438C18.7966 13.5675 17.4377 12.2086 15.7614 12.2086C14.085 12.2086 12.7261 13.5675 12.7261 15.2438C12.7261 16.9201 14.085 18.2791 15.7614 18.2791ZM24.2963 22.0185C24.2963 21.0863 23.5406 20.3305 22.6083 20.3305H15.762C13.3585 20.3305 11.4102 22.2789 11.4102 24.6823V26.6629C11.4102 27.5372 12.1189 28.2459 12.9932 28.2459H13.2752L13.7385 32.5336C13.8286 33.3678 14.5328 34 15.3718 34H16.197C17.0168 34 17.7111 33.3956 17.8242 32.5837L19.0597 23.7065H22.6083C23.5406 23.7065 24.2963 22.9507 24.2963 22.0185Z" fill="white"/>
</g>
<defs>
<clipPath id="clip0_0_1">
<rect width="23" height="23" fill="white" transform="translate(11 11)"/>
</clipPath>
</defs>
</svg>
